<svg width="731" height="454" viewBox="0 0 731 454" fill="none" xmlns="http://www.w3.org/2000/svg">
<path d="M197.508 2.53336C194.574 3.8667 186.174 7.73336 178.841 10.9334C171.508 14.2667 162.174 18.4 158.174 20.2667C154.174 22.1334 148.041 24.8 144.574 26.4C138.708 29.0667 136.174 31.8667 139.508 31.8667C140.308 31.8667 155.508 24.6667 173.241 15.8667C190.974 7.0667 204.974 3.08901e-05 204.174 3.08901e-05C203.508 3.08901e-05 200.441 1.20003 197.508 2.53336Z" fill="white"/>
<path d="M119.108 18C118.574 18.5334 118.174 22.1334 118.174 26C118.174 31.3334 117.641 33.2 115.908 33.8667C114.574 34.4 104.574 38 93.5078 41.8667C40.3078 60.5334 40.1745 60.6667 39.6411 63.2C39.3745 65.0667 39.7745 65.3334 41.6411 64.5334C43.9078 63.7334 88.5745 48.4 112.708 40.2667C124.174 36.4 123.774 36.1334 129.508 49.2C133.108 57.4667 135.774 63.3334 146.708 87.0667C151.108 96.6667 151.508 98.4 151.241 108.133C150.841 119.467 150.974 119.2 142.174 120.133C139.108 120.533 138.841 121.2 138.174 128C137.508 136.133 134.974 140 128.574 143.333C120.308 147.6 109.374 143.867 105.374 135.467C103.508 131.6 102.708 131.067 99.3745 131.6C95.5078 132.133 95.3745 132.267 97.6411 135.733C101.108 141.2 106.441 146.533 110.708 148.8C116.708 151.867 127.774 151.467 132.841 147.867C137.774 144.267 142.041 135.867 142.174 129.467C142.174 125.2 142.308 125.067 147.108 125.467C152.041 125.867 152.041 125.867 154.574 135.2C155.908 140.267 157.508 146.933 158.041 149.867C158.708 152.8 160.708 160.8 162.574 167.6C164.974 176.4 165.508 180.133 164.441 180.533C162.841 181.067 134.441 186.533 104.841 191.867C96.4411 193.467 83.7745 195.867 76.8411 197.2C69.9078 198.667 49.9078 202.533 32.3078 205.733C14.8411 209.067 0.307803 212 0.0411363 212.267C-0.22553 212.4 0.841136 214.533 2.17447 216.933C3.9078 219.733 5.9078 221.2 7.77447 221.2C9.5078 221.2 29.7745 219.333 52.8411 217.2C75.9078 214.933 107.774 212 123.508 210.533C139.241 209.067 157.908 207.333 164.841 206.667C171.774 206 177.508 205.6 177.641 205.733C182.174 214.8 191.508 219.867 203.774 219.867C210.974 219.867 212.308 220.4 216.974 224.4C227.108 233.067 252.174 243.867 262.174 243.867C267.108 243.867 273.508 240.8 274.708 237.867C276.574 232.8 275.641 232.267 265.908 232C257.508 231.733 254.841 231.067 245.508 226.4C230.041 218.667 213.374 206.133 210.174 199.867C206.841 193.333 206.708 186.267 209.908 183.467C211.108 182.4 216.441 180.4 221.508 179.067C226.708 177.867 231.108 176.667 231.241 176.4C231.508 176.267 230.174 172.4 228.174 168C225.774 162.8 223.641 159.867 222.308 159.867C221.108 159.867 215.641 161.067 210.174 162.533L200.174 165.2L198.174 162.4C195.641 159.2 184.174 140.267 171.908 119.467C166.041 109.333 163.508 103.733 163.508 100.533C163.508 95.0667 124.974 18.1334 121.908 17.4667C120.841 17.3334 119.641 17.4667 119.108 18Z" fill="white"/>
<path d="M355.374 41.6001C348.174 47.2001 335.108 57.6001 329.374 62.5334C327.774 63.8668 319.641 70.2668 311.375 76.8001C275.775 104.8 253.508 123.067 253.108 124.533C252.841 125.333 253.641 126.933 254.708 127.867C256.441 129.2 259.641 127.2 275.775 114.133C286.308 105.6 296.441 97.2001 298.441 95.6001C300.441 93.8668 306.575 88.9334 312.308 84.5334C317.908 80.1334 324.974 74.4001 328.041 71.8668C331.108 69.3334 335.908 65.3334 338.841 63.2001C344.308 58.9334 353.108 51.7334 354.174 50.5334C357.241 47.2001 364.708 43.4668 371.774 42.0001L380.174 40.1334L368.841 40.0001C361.908 40.0001 356.708 40.5334 355.374 41.6001Z" fill="white"/>
<path d="M350.841 68.1334C336.975 79.8668 323.641 91.0668 321.508 92.9334C319.241 94.9334 314.441 98.9334 310.841 101.867C307.108 104.667 303.908 107.467 303.508 107.867C303.108 108.267 294.575 115.467 284.575 123.867C274.441 132.133 266.175 139.333 266.308 139.733C266.975 145.067 268.308 144.933 274.175 139.467C277.508 136.4 284.441 130.267 289.508 125.867C294.708 121.467 299.775 116.933 300.841 115.867C301.908 114.8 307.641 109.6 313.508 104.533C323.241 96.0001 329.508 90.5334 360.175 63.0668C366.041 57.8668 372.708 52.0001 374.841 50.1334C377.108 48.1334 378.308 46.6668 377.508 46.6668C376.841 46.6668 364.841 56.4001 350.841 68.1334Z" fill="white"/>
<path d="M211.908 56L203.641 61.4667L199.641 59.0667C195.508 56.6667 195.508 56.6667 192.441 59.6C189.908 62.2667 189.508 63.8667 189.641 72.5333L189.774 82.5333H185.241H180.708L191.774 92.1333C198.041 97.4667 205.908 104.267 209.508 107.2C213.108 110.133 216.574 113.2 217.374 114C218.174 114.8 221.908 115.733 225.508 116.267C229.241 116.667 233.374 117.467 234.841 117.867C236.308 118.4 234.174 115.867 230.174 112.267C226.174 108.8 221.108 104.267 218.841 102.267C213.774 97.8667 215.374 95.7333 224.574 94.5333C230.441 93.7333 230.574 93.6 226.841 92.6667C219.508 90.9333 211.374 86.1333 209.374 82.4C205.641 74.9333 207.908 64.1333 214.708 57.8667C217.908 54.9333 221.374 50.5333 220.708 50.5333C220.441 50.5333 216.441 53.0667 211.908 56Z" fill="white"/>
<path d="M225.241 59.3333C216.841 62.9333 215.374 73.4667 222.308 80C227.641 84.9333 233.774 85.2 238.574 80.6667C244.974 74.6667 244.841 65.8667 238.174 61.0667C233.374 57.7333 230.041 57.2 225.241 59.3333Z" fill="white"/>
<path d="M114.574 100.133C110.441 102.133 107.374 109.333 108.308 114.4C109.908 122.133 120.174 126.533 127.374 122.533C130.574 120.8 134.174 114.533 134.174 110.4C134.174 108.933 132.174 105.6 129.641 103.067C124.841 98.2667 120.308 97.3333 114.574 100.133Z" fill="white"/>
<path d="M240.841 136C237.508 138.133 234.841 140.267 234.975 140.667C234.975 141.067 237.108 144.667 239.508 148.667C244.175 156.4 246.308 157.2 251.508 153.2C253.375 151.733 255.508 150.533 256.441 150.533C261.108 150.533 259.508 146.533 249.908 135.733L246.841 132.133L240.841 136Z" fill="white"/>
<path d="M642.441 244.8C640.708 245.2 637.374 247.467 634.841 250L630.174 254.667V304.133V353.467L635.241 358.533C639.108 362.4 641.774 363.867 646.574 364.533C659.108 366.4 671.241 362.133 675.108 354.533C676.441 352 676.708 339.867 676.574 302.933L676.174 254.8L672.841 251.2C670.974 249.2 667.641 246.667 665.241 245.733C661.241 244 649.241 243.467 642.441 244.8ZM659.374 253.867C661.508 254.933 663.508 257.2 664.041 258.8C664.441 260.533 664.841 281.733 664.841 306C664.841 348.667 664.708 350.267 662.041 353.733C658.308 358.533 650.174 358.667 645.508 353.867L642.174 350.667V306C642.174 276 642.708 260.267 643.641 258C646.308 252.267 652.974 250.533 659.374 253.867Z" fill="white"/>
<path d="M131.508 247.6C128.974 248.8 125.508 252 123.774 254.533C120.841 258.933 120.574 260.267 120.974 277.2C121.241 300.4 121.374 299.867 118.174 299.867C116.041 299.867 115.508 300.8 115.508 304.533C115.508 308.533 115.908 309.2 118.574 309.2H121.508L121.374 332.267C121.241 344.8 121.374 357.2 121.774 359.467C122.441 363.6 122.841 363.867 127.641 363.867H132.841V336.667C132.841 320.133 133.374 309.2 134.174 308.933C134.841 308.667 139.908 308.667 145.508 308.933L155.508 309.467L155.774 336.267L156.174 363.2L162.574 363.6L168.841 364V311.2C168.841 252 168.974 252.667 159.508 247.867C152.708 244.4 138.174 244.133 131.508 247.6ZM154.308 256C154.974 257.067 155.508 267.333 155.508 278.933V300L144.574 299.6L133.508 299.2L133.108 281.867C132.574 260.8 133.374 256.133 137.241 254.533C141.374 252.667 152.841 253.733 154.308 256Z" fill="white"/>
<path d="M186.841 246.267C186.441 246.667 186.174 273.333 186.174 305.467V363.867H206.841H227.508V360.533V357.2H213.508H199.508L199.241 301.6L198.841 245.867L193.108 245.733C190.041 245.733 187.241 246 186.841 246.267Z" fill="white"/>
<path d="M282.708 246.4C282.441 246.667 282.174 273.333 282.174 305.467V363.867H302.841H323.508V360.533C323.508 357.333 323.374 357.333 309.241 356.933L294.841 356.533V301.467C294.841 265.867 294.308 246.533 293.508 246.4C289.508 245.867 283.241 246 282.708 246.4Z" fill="white"/>
<path d="M460.041 246.4C459.774 246.667 459.508 273.333 459.508 305.467V363.867H466.174H472.841V312.667V261.333L476.441 258.667C481.241 254.8 485.508 253.867 490.174 255.867L494.174 257.467V310.667V363.867H500.841H507.508V312C507.508 278.133 506.974 258.8 506.041 256.133C503.108 247.733 490.708 244 479.908 248.533C477.374 249.6 474.708 250.533 474.041 250.533C473.374 250.533 472.841 249.6 472.841 248.533C472.841 247.467 472.441 246.533 471.908 246.4C467.108 246 460.574 246 460.041 246.4Z" fill="white"/>
<path d="M578.708 247.733C575.641 249.067 571.774 252.267 570.041 254.667C566.841 259.2 566.841 259.467 566.441 299.467C565.908 351.867 567.108 358.533 578.308 364.133C583.641 366.8 593.908 367.2 599.108 364.933C608.841 360.667 612.841 351.467 612.841 333.333V322.533H606.974H601.241L600.441 336C599.641 350.933 598.308 353.733 590.841 355.333C587.908 355.867 585.774 355.333 583.508 353.467L580.174 350.8L580.441 305.6L580.841 260.533L584.174 257.467C588.041 254.133 589.908 253.867 594.574 256C599.241 258.133 601.108 263.067 601.908 274.8L602.574 285.2H607.641C610.441 285.2 612.974 284.8 613.374 284.133C614.708 282 611.374 261.867 608.841 256.533C603.908 246.267 590.441 242.4 578.708 247.733Z" fill="white"/>
<path d="M360.708 247.733C354.974 248.933 346.708 253.733 345.641 256.667C345.241 257.867 344.841 268 344.841 279.333V299.867H341.508C338.574 299.867 338.174 300.4 338.174 304.533C338.174 308.667 338.574 309.2 341.508 309.2H344.841V331.6C344.841 353.2 344.974 354.133 347.908 356.8C349.508 358.267 352.308 360.267 354.174 361.333C358.174 363.467 373.241 365.2 379.108 364.267C382.841 363.6 383.508 362.933 383.508 360C383.508 356.533 383.374 356.533 373.774 356.533C366.708 356.533 362.974 355.867 360.441 354.133L356.841 351.867V330.533V309.2H370.174H383.508V304.533V299.867H370.174H356.841V279.2V258.667L360.841 256.533C363.241 255.333 368.308 254.533 374.174 254.533H383.641L383.241 250.8C382.841 247.333 382.574 247.2 374.174 246.933C369.374 246.933 363.374 247.2 360.708 247.733Z" fill="white"/>
<path d="M418.841 248C412.174 249.6 405.241 254.267 404.308 257.867C403.908 259.333 403.508 269.333 403.508 280.133C403.508 298.933 403.374 299.867 400.841 299.867C398.708 299.867 398.174 300.8 398.174 304.533C398.174 308.267 398.708 309.2 400.841 309.2C403.374 309.2 403.508 310.133 403.508 330.933C403.508 355.6 404.041 357.2 413.374 361.067C420.041 364 433.508 365.6 438.708 364.133C441.374 363.333 442.708 362.133 442.841 360.133C442.974 358.533 442.441 357.2 441.641 357.067C440.841 357.067 436.841 357.067 432.841 356.933C428.841 356.933 423.374 355.867 420.841 354.667L416.174 352.533L415.774 330.933L415.508 309.333L429.108 308.933L442.841 308.533V304.533V300.533L429.241 300.133L415.508 299.733V280.133C415.508 269.333 416.041 259.867 416.574 259.067C418.574 256 423.641 254.533 432.574 254.533C441.374 254.533 441.908 254.4 442.441 251.333C442.841 249.2 442.441 247.733 441.241 247.333C438.308 246.133 424.841 246.667 418.841 248Z" fill="white"/>
<path d="M240.841 328.533C240.841 331.867 240.841 331.867 254.041 331.867C266.975 331.867 267.241 331.867 267.775 328.533L268.441 325.2H254.708H240.841V328.533Z" fill="white"/>
<path d="M690.174 358.533V363.867H697.508H704.841V358.533V353.2H697.508H690.174V358.533Z" fill="white"/>
<path d="M321.508 406.8C318.041 409.467 317.908 410.133 318.574 418.133C318.974 423.733 318.708 427.2 317.641 428.267C314.041 431.867 311.508 436.667 311.508 439.6C311.508 448.533 321.374 454.933 330.574 452C334.041 450.8 336.174 450.8 338.041 451.733C341.908 453.867 344.574 453.467 347.508 450.533C350.308 447.733 351.241 439.867 348.841 439.867C348.174 439.867 347.508 441.333 347.508 443.067C347.508 444.8 346.574 446.933 345.374 447.867C343.774 449.333 342.974 449.2 341.241 447.467C339.641 445.867 339.508 444.8 340.441 443.6C341.241 442.667 342.574 439.333 343.374 436.133C344.308 433.067 345.508 430.533 346.174 430.533C346.974 430.533 347.508 429.6 347.508 428.533C347.508 427.067 345.908 426.533 341.508 426.533C334.841 426.533 333.908 428.133 338.441 431.867C341.374 434.133 341.374 434.4 339.374 438.667L337.241 443.067L332.441 435.867C326.708 427.333 326.574 426.533 330.308 423.067C337.508 416.533 338.308 408.267 332.174 405.467C327.374 403.2 325.774 403.467 321.508 406.8ZM330.708 410C333.508 412.8 333.374 413.733 329.508 418.133C326.308 421.733 326.174 421.867 324.174 419.333C323.108 417.867 322.174 415.6 322.174 414.4C322.174 412 325.508 407.867 327.508 407.867C328.174 407.867 329.641 408.8 330.708 410ZM324.974 435.467C326.574 438.267 329.108 441.867 330.574 443.467C333.508 446.8 332.574 449.2 328.441 449.2C321.241 449.2 316.708 441.333 319.374 434.133C320.174 432.133 320.974 430.533 321.374 430.533C321.641 430.533 323.241 432.8 324.974 435.467Z" fill="white"/>
<path d="M510.041 406C507.774 408.8 510.041 412.533 514.308 412.533C517.908 412.533 519.241 408.8 516.841 405.867C514.708 403.333 512.308 403.333 510.041 406Z" fill="white"/>
<path d="M106.174 413.867C106.174 420.667 106.574 422.533 108.174 422.533C109.508 422.533 110.174 421.2 110.174 418.4C110.174 412.933 112.308 409.2 115.508 409.2C118.041 409.2 118.174 410.267 118.174 428C118.174 445.6 118.041 446.8 115.508 447.467C114.041 447.867 112.841 449.067 112.841 450C112.841 451.467 115.108 451.867 122.174 451.867C129.241 451.867 131.508 451.467 131.508 450C131.508 449.067 130.308 447.867 128.841 447.467C126.308 446.8 126.174 445.6 126.174 428C126.174 410.267 126.308 409.2 128.841 409.2C132.041 409.2 134.174 412.933 134.174 418.4C134.174 421.2 134.841 422.533 136.174 422.533C137.774 422.533 138.174 420.667 138.174 413.867V405.2H122.174H106.174V413.867Z" fill="white"/>
<path d="M278.174 407.2C278.174 408.267 278.841 409.2 279.508 409.2C280.308 409.2 280.841 416.267 280.841 427.733C280.841 438.8 280.308 446.667 279.508 447.2C278.841 447.6 278.174 448.933 278.174 450C278.174 451.333 279.908 451.867 284.841 451.867C289.641 451.867 291.508 451.333 291.508 450C291.508 448.933 290.574 447.867 289.508 447.333C287.908 446.8 287.508 443.067 287.508 425.867V405.2H282.841C279.641 405.2 278.174 405.867 278.174 407.2Z" fill="white"/>
<path d="M370.174 413.867C370.174 423.733 372.041 425.467 373.374 416.667C374.174 411.333 375.908 409.2 379.641 409.2C380.308 409.2 380.841 417.467 380.841 428C380.841 445.6 380.708 446.8 378.174 447.467C376.708 447.867 375.508 449.067 375.508 450C375.508 451.467 377.774 451.867 384.841 451.867C392.041 451.867 394.174 451.467 394.174 450C394.174 448.933 392.974 447.6 391.508 447.2C388.974 446.4 388.841 445.2 388.841 428.4C388.841 413.6 389.241 410.267 390.841 409.733C393.908 408.533 396.574 411.467 397.508 417.333C398.841 425.467 400.841 423.467 400.841 413.867V405.2H385.508H370.174V413.867Z" fill="white"/>
<path d="M626.174 407.2C626.174 408.267 627.108 409.2 628.174 409.2C629.908 409.2 630.174 412.133 630.174 427.867C630.174 443.333 629.774 446.8 628.174 447.333C627.108 447.867 626.174 448.933 626.174 450C626.174 451.467 629.108 451.867 640.174 451.867H654.174V443.867C654.174 435.6 652.441 433.2 651.108 439.467C649.774 445.2 648.441 446.533 643.108 447.467L638.174 448.267V429.2C638.174 411.467 638.308 410.267 640.841 409.6C642.308 409.2 643.508 408 643.508 407.067C643.508 405.6 641.374 405.2 634.841 405.2C628.041 405.2 626.174 405.6 626.174 407.2Z" fill="white"/>
<path d="M700.841 407.2C700.841 408.267 701.508 409.2 702.174 409.2C702.974 409.2 703.508 411.2 703.508 413.733C703.508 418.267 703.508 418.267 699.508 416.8C692.174 414 687.774 419.6 686.574 433.067C685.241 446.8 692.441 456.4 700.174 451.333C702.041 450.133 703.508 449.733 703.508 450.533C703.508 451.2 705.908 451.867 708.841 451.867C712.708 451.867 714.174 451.333 714.174 449.867C714.174 448.8 713.641 447.867 712.841 447.867C712.041 447.867 711.508 439.867 711.508 426.533V405.2H706.174C702.308 405.2 700.841 405.733 700.841 407.2ZM702.841 433.733C702.841 443.467 702.441 445.867 700.574 447.067C698.841 448.133 697.774 448 696.708 446.933C694.708 444.933 693.641 434.667 694.708 427.2C695.641 421.467 695.908 421.067 699.241 421.467L702.841 421.867V433.733Z" fill="white"/>
<path d="M668.841 409.333C668.841 410.133 666.841 412.667 664.575 414.933C661.775 417.467 660.841 419.2 661.908 419.467C662.975 419.867 663.508 423.733 663.508 432.267C663.508 447.333 664.175 449.867 668.308 451.733C672.841 453.733 673.775 453.6 676.841 450.533C679.641 447.733 680.441 442.533 678.175 442.533C677.508 442.533 676.841 443.733 676.841 445.067C676.841 448.4 674.175 450.133 672.708 447.733C672.041 446.667 671.641 440.133 671.775 433.2C672.175 421.2 672.308 420.533 675.241 420.133C676.841 419.867 678.175 419.2 678.175 418.533C678.175 417.867 676.841 417.2 675.241 416.933C672.841 416.667 672.041 415.467 671.775 412.133C671.375 408.267 668.841 405.733 668.841 409.333Z" fill="white"/>
<path d="M159.108 416.667C158.574 417.2 155.241 417.467 151.508 417.333C145.374 417.2 142.974 418.533 146.174 420.533C146.974 420.933 147.508 427.2 147.508 434.667C147.508 442.533 146.974 447.867 146.174 447.867C145.508 447.867 144.841 448.8 144.841 449.867C144.841 451.333 146.574 451.867 152.041 451.867C159.908 451.867 162.574 450.133 158.174 447.867C155.774 446.667 155.508 445.067 155.508 435.067C155.508 422 156.841 418.533 161.641 418.533H165.108L162.041 421.067C158.974 423.6 158.974 423.867 161.241 426C163.374 428.267 163.641 428.267 165.774 426.133C167.508 424.4 167.774 423.067 166.708 420.267C165.508 416.667 161.108 414.667 159.108 416.667Z" fill="white"/>
<path d="M179.774 417.2C178.174 417.867 176.174 420 175.241 421.867C173.908 424.8 174.041 425.733 176.308 428C179.641 431.333 183.508 430.133 183.508 425.733C183.508 424 182.974 422.533 182.174 422.533C181.508 422.533 180.841 421.867 180.841 421.2C180.841 419.2 188.308 419.6 190.174 421.733C193.108 425.467 191.108 429.733 185.108 432.667C176.708 436.933 174.174 439.6 174.174 444.8C174.174 448.533 174.841 449.6 178.841 451.467C183.374 453.6 183.641 453.6 187.508 450.8L191.508 447.867L194.174 450.533C197.508 453.867 199.774 453.867 202.574 450.8C205.108 448 205.508 444.4 203.508 443.2C202.841 442.8 202.174 443.6 202.174 445.067C202.174 448.933 199.908 449.733 198.974 446.133C198.574 444.533 198.174 438 198.174 431.6C198.174 421.2 197.908 419.867 195.241 418C191.908 415.733 184.574 415.333 179.774 417.2ZM191.508 439.067C191.508 445.2 187.241 450.4 183.908 448.4C180.041 446 180.308 443.2 184.841 438C189.774 432.533 191.508 432.8 191.508 439.067Z" fill="white"/>
<path d="M252.441 417.333C251.241 418 249.241 420.4 248.174 422.533C245.774 427.2 245.508 440.933 247.774 445.867C249.508 449.733 255.108 453.2 259.374 453.2C262.974 453.2 268.574 448 269.641 443.467C270.841 438.267 267.374 438.8 264.841 444.267C262.041 450.133 257.641 450.667 254.974 445.333C253.774 443.2 252.841 439.867 252.841 437.867C252.841 434.667 253.108 434.533 261.508 434.533C269.774 434.533 270.174 434.4 270.174 431.333C270.174 426.667 266.574 418.8 263.641 417.2C260.308 415.467 255.508 415.6 252.441 417.333ZM260.841 422.667C261.641 424.133 262.174 426.667 261.908 428.267C261.374 432.533 253.641 432.533 253.108 428.267C252.574 424.533 254.974 419.867 257.508 419.867C258.574 419.867 260.041 421.067 260.841 422.667Z" fill="white"/>
<path d="M413.641 418.933C407.241 425.333 408.041 444.267 414.841 450.133C418.708 453.467 421.774 453.867 426.574 451.733C436.308 447.333 436.708 419.333 427.108 416.667C421.241 415.067 416.708 415.867 413.641 418.933ZM424.841 422.4C426.574 425.733 426.574 441.2 424.841 445.733C423.108 450.4 420.174 450.133 418.174 445.2C416.441 441.067 416.841 424.4 418.708 421.333C420.174 419.067 423.241 419.6 424.841 422.4Z" fill="white"/>
<path d="M492.308 417.067C491.908 417.733 488.841 417.867 485.508 417.467C479.908 416.933 477.374 418.4 480.841 420.533C481.641 420.933 482.174 427.2 482.174 434.667C482.174 442.533 481.641 447.867 480.841 447.867C480.174 447.867 479.508 448.8 479.508 449.867C479.508 451.467 481.241 451.867 487.508 451.867C493.374 451.867 495.508 451.333 495.508 450C495.508 449.067 494.308 447.867 492.841 447.467C490.441 446.8 490.174 445.6 490.174 435.2C490.174 421.733 491.508 418.533 496.574 418.667C500.174 418.667 500.174 418.8 497.241 420.133C493.641 421.867 493.241 425.867 496.308 427.067C500.974 428.8 504.308 421.2 500.574 417.467C498.708 415.6 493.374 415.333 492.308 417.067Z" fill="white"/>
<path d="M531.641 418.667C525.508 425.2 528.841 432.8 540.174 438.133C544.308 440 545.641 441.467 545.908 444.267C546.708 451.467 537.508 450.267 533.508 442.533C530.441 436.667 528.841 437.6 528.841 445.2C528.841 451.333 530.441 454.133 531.908 450.133C532.308 448.933 533.508 449.067 536.574 450.8C541.774 453.867 543.774 453.867 548.041 450.4C550.841 448.133 551.508 446.533 551.508 441.733C551.508 436.4 551.108 435.6 546.174 432.533C543.241 430.667 540.441 429.2 539.774 429.2C539.108 429.2 537.508 428 536.174 426.533C534.174 424.4 534.174 423.6 535.508 421.867C536.441 420.8 538.174 419.867 539.508 419.867C542.041 419.867 546.174 423.867 546.174 426.267C546.174 427.2 547.108 427.867 548.174 427.867C549.641 427.867 550.174 426.4 550.174 422.533C550.174 417.867 549.774 417.2 547.241 417.2C545.508 417.2 542.041 416.933 539.374 416.4C535.374 415.733 534.041 416.133 531.641 418.667Z" fill="white"/>
<path d="M573.641 418.667C570.841 420.933 570.174 421.067 570.174 419.333C570.174 417.733 568.841 417.2 564.841 417.2C559.774 417.2 557.908 418.8 560.841 420.533C561.641 420.933 562.174 427.2 562.174 434.667C562.174 442.533 561.641 447.867 560.841 447.867C560.174 447.867 559.508 448.8 559.508 449.867C559.508 451.333 561.108 451.867 566.174 451.867C572.974 451.867 574.708 450.267 571.374 446.933C569.108 444.667 570.308 424.133 572.841 422.533C577.774 419.333 578.841 421.333 579.241 434.933C579.508 443.2 579.108 447.867 578.174 447.867C577.508 447.867 576.841 448.8 576.841 449.867C576.841 451.333 578.441 451.867 583.508 451.867C588.574 451.867 590.174 451.333 590.174 449.867C590.174 448.8 589.641 447.867 588.841 447.867C587.108 447.867 587.108 427.067 588.841 423.733C590.708 420.4 593.641 420.533 595.508 424C597.108 426.933 596.708 443.6 594.841 448.8C593.908 451.733 594.174 451.867 600.708 451.867C605.641 451.867 607.508 451.333 607.508 450C607.508 448.933 606.574 447.867 605.508 447.333C603.908 446.8 603.508 443.867 603.508 432.8C603.508 423.867 602.974 418.533 601.908 417.467C599.508 415.067 594.974 415.467 591.241 418.4C588.041 421.067 587.908 421.067 585.774 418.4C582.841 415.067 578.041 415.2 573.641 418.667Z" fill="white"/>
<path d="M210.174 418.267C210.174 418.8 210.841 420 211.774 420.933C212.574 421.733 213.508 423.2 213.641 424.133C213.774 425.067 215.374 431.6 217.241 438.533C220.308 450.667 220.574 451.2 224.174 451.2C227.641 451.2 228.041 450.533 230.308 441.867C234.174 427.2 235.908 422 237.108 420.533C239.241 418.133 238.174 417.2 233.508 417.2C228.841 417.2 227.774 418.267 230.041 420.533C231.374 421.867 228.041 439.6 226.174 441.6C225.641 442.133 224.308 438 223.241 432.267C221.374 423.333 221.374 421.6 222.974 420.4C226.174 417.867 225.108 417.2 217.508 417.2C213.508 417.2 210.174 417.733 210.174 418.267Z" fill="white"/>
<path d="M442.174 418.267C442.174 418.8 442.708 419.867 443.374 420.533C444.041 421.333 444.841 427.733 445.108 434.8C445.508 445.067 446.174 448.267 448.041 450.4C451.241 453.867 454.441 454 457.508 450.533C460.441 447.333 462.174 447.067 462.174 449.867C462.174 451.333 463.641 451.867 467.508 451.867C471.374 451.867 472.841 451.333 472.841 449.867C472.841 448.8 472.308 447.867 471.508 447.867C470.708 447.867 470.174 441.867 470.174 432.533V417.2H464.841C460.974 417.2 459.508 417.733 459.508 419.2C459.508 420.267 460.174 421.2 460.841 421.2C461.641 421.2 462.174 425.6 462.174 431.6C462.174 442.933 460.441 447.2 456.041 446.267C453.774 445.867 453.508 444.4 453.108 431.467L452.708 417.2H447.508C444.574 417.2 442.174 417.733 442.174 418.267Z" fill="white"/>
<path d="M507.508 418.4C507.508 419.2 508.174 420.133 508.841 420.533C509.641 420.933 510.174 426.933 510.174 433.867C510.174 440.8 509.641 446.8 508.841 447.2C508.174 447.6 507.508 448.933 507.508 450C507.508 451.333 509.241 451.867 514.174 451.867C519.241 451.867 520.841 451.333 520.841 449.867C520.841 448.8 520.308 447.867 519.508 447.867C518.708 447.867 518.174 441.867 518.174 432.533V417.2H512.841C509.908 417.2 507.508 417.733 507.508 418.4Z" fill="white"/>
<path d="M723.908 443.467C721.508 444.267 721.774 450.133 724.174 451.067C727.374 452.267 730.174 450.533 730.174 447.2C730.174 444.133 727.108 442.4 723.908 443.467Z" fill="white"/>
</svg>
